PathFileType	4	(X/Y/Z)	C:\Git\research_data\Projects\torsion_deformities_healthy_kinematics\simulations\TD01\pre\dynamic_12_l\marker_experimental.trc
DataRate	CameraRate	NumFrames	NumMarkers	Units	OrigDataRate	OrigDataStartFrame	OrigNumFrames
200	200	5	30	mm	200	229	609
Frame#	Time	C7			T10			CLAV			STRN			RBAK			LASI			RASI			SACR			RT1			RT2			RT3			RKNE			RS1			RS2			RS3			RANK			RHEE			RTOE			LT1			LT2			LT3			LKNE			LS1			LS2			LS3			LANK			LHEE			LTOE			RHJC			LHJC		
		X1	Y1	Z1	X2	Y2	Z2	X3	Y3	Z3	X4	Y4	Z4	X5	Y5	Z5	X6	Y6	Z6	X7	Y7	Z7	X8	Y8	Z8	X9	Y9	Z9	X10	Y10	Z10	X11	Y11	Z11	X12	Y12	Z12	X13	Y13	Z13	X14	Y14	Z14	X15	Y15	Z15	X16	Y16	Z16	X17	Y17	Z17	X18	Y18	Z18	X19	Y19	Z19	X20	Y20	Z20	X21	Y21	Z21	X22	Y22	Z22	X23	Y23	Z23	X24	Y24	Z24	X25	Y25	Z25	X26	Y26	Z26	X27	Y27	Z27	X28	Y28	Z28	X29	Y29	Z29	X30	Y30	Z30	

229	1.140000	82.818489	1238.925537	189.360397	45.368507	1053.380127	186.003876	210.225571	1195.607300	184.235123	255.250351	1063.694336	180.904633	56.941460	1167.984863	287.412201	201.091644	854.342896	93.579544	182.098526	852.039001	292.888458	27.862530	890.982117	181.411102	142.671799	641.614014	331.687164	104.622841	587.012268	335.151428	155.785294	576.762024	324.656952	117.244606	438.887543	321.819824	-7.326039	373.732147	343.851410	-67.387550	345.963135	332.415558	-29.762203	312.433289	330.275360	-203.551010	213.203964	299.344727	-225.482269	256.803070	249.152420	-195.007813	79.385269	252.941559	202.799866	673.085876	56.953037	200.943878	607.319580	63.024097	245.974808	627.147949	80.957016	258.977448	472.536835	105.085716	228.894714	327.548645	75.309624	219.999420	262.818970	83.402412	266.558533	278.262299	98.748161	223.979660	87.213486	119.268600	180.154617	77.498192	157.598938	368.785034	64.205750	161.059326	120.007277	794.501857	259.445208	133.927674	796.190422	113.368130	
230	1.145000	89.769432	1239.794678	189.027023	52.372772	1054.261597	185.807434	217.200760	1196.562012	183.882935	262.205536	1064.600220	180.577286	63.971321	1168.958984	287.098358	207.720642	855.362427	93.080536	189.040436	852.780334	292.754242	34.730991	891.750061	181.446503	152.689301	642.571289	331.942047	115.495972	587.424011	335.469482	166.856979	577.952393	325.225250	130.804291	439.323242	322.581177	6.451849	374.592102	344.715820	-54.031731	347.594238	333.516174	-16.669853	313.704346	330.646149	-191.792709	216.987259	299.472198	-213.782257	260.202148	249.017105	-183.445297	82.368881	254.794861	208.641754	673.516174	56.717022	206.165344	607.727783	62.699684	251.301514	627.089050	80.763962	262.759521	472.205719	104.619560	230.003601	327.393768	75.225380	220.424011	262.785370	83.630531	267.526733	277.632080	97.764038	223.937515	87.197174	119.422348	180.163742	77.570328	157.725967	368.824493	64.197861	161.051636	126.939514	795.145045	259.284344	140.628282	797.037190	112.964378	
231	1.150000	96.695686	1240.673950	188.716919	59.338139	1055.153687	185.621353	224.146988	1197.513672	183.560547	269.104797	1065.486816	180.293442	70.964676	1169.945190	286.809479	214.311264	856.337463	92.589798	195.934845	853.549133	292.636200	41.564362	892.528870	181.455276	162.636292	643.688782	332.202057	126.302231	588.018005	335.797607	177.844345	579.323425	325.788696	144.322388	439.975586	323.334930	20.195248	375.660828	345.467468	-40.681255	349.391296	334.463959	-3.558959	315.145020	330.973755	-179.829269	220.571930	299.500610	-202.019073	263.242249	248.715134	-170.922668	85.316254	256.743011	214.194458	673.735779	56.418068	210.799988	607.911316	62.388775	256.153717	626.617065	80.343185	266.300842	471.798981	104.168007	230.982513	327.210541	75.198151	220.774704	262.732269	83.923203	268.393158	277.009583	96.845596	223.928543	87.189819	119.601173	180.194016	77.662743	157.877014	368.888855	64.165466	161.076126	133.817105	795.810405	259.155203	147.280957	797.853331	112.587191	
232	1.155000	103.597092	1241.559937	188.429306	66.266014	1056.052368	185.445221	231.064148	1198.459473	183.267151	275.950806	1066.354004	180.050339	77.921143	1170.938843	286.543915	220.867249	857.268066	92.108101	202.795456	854.346008	292.524872	48.366154	893.318176	181.440781	172.514725	644.957581	332.462646	137.048050	588.779785	336.135223	188.753922	580.863403	326.340424	157.783493	440.842590	324.083923	33.880173	376.935516	346.094666	-27.350807	351.333679	335.235382	9.556799	316.740387	331.271057	-167.655518	223.907486	299.442444	-190.171844	265.898010	248.270706	-157.501648	88.179100	258.753754	219.465195	673.761841	56.055157	214.898514	607.896545	62.098412	260.570709	625.787170	79.711128	269.630951	471.331848	103.745720	231.909897	327.011200	75.222977	221.123154	262.668121	84.261902	269.216095	276.405029	96.029877	223.957825	87.193321	119.800507	180.246445	77.777176	158.046692	368.976654	64.108322	161.129898	140.652497	796.501261	259.053277	153.890920	798.641804	112.238736	
233	1.160000	110.473701	1242.449219	188.163376	73.157944	1056.953369	185.278702	237.952362	1199.396729	183.001709	282.746704	1067.201782	179.844849	84.840691	1171.935303	286.299896	227.391769	858.155334	91.635979	209.635345	855.171082	292.411102	55.139587	894.117493	181.407120	182.326691	646.367126	332.720825	147.740540	589.693542	336.481842	199.593170	582.559875	326.875702	171.173920	441.919098	324.829773	47.487457	378.404449	346.590271	-14.050178	353.391541	335.814453	22.668699	318.468689	331.549805	-155.266296	226.948441	299.311157	-178.219101	268.149261	247.711014	-143.256058	90.913902	260.794922	224.472580	673.620667	55.631290	218.537827	607.720215	61.835644	264.611572	624.673340	78.899727	272.777924	470.820618	103.363411	232.856369	326.806763	75.292862	221.534103	262.600128	84.625580	270.048492	275.827881	95.347084	224.026413	87.208801	120.014313	180.320175	77.913651	158.229462	369.084351	64.028999	161.207764	147.457694	797.220371	258.973813	160.462988	799.406120	111.920590	
